<?xml version="1.0" standalone="no"?>
<!DOCTYPE svg PUBLIC "-//W3C//DTD SVG 20010904//EN"
 "http://www.w3.org/TR/2001/REC-SVG-20010904/DTD/svg10.dtd">
<svg version="1.0" xmlns="http://www.w3.org/2000/svg"
 width="500.000000pt" height="500.000000pt" viewBox="0 0 500.000000 500.000000"
 preserveAspectRatio="xMidYMid meet">
<metadata>
Created by potrace 1.14, written by Peter Selinger 2001-2017
</metadata>
<g transform="translate(0.000000,500.000000) scale(0.100000,-0.100000)"
fill="#000000" stroke="none">
<path d="M1110 3489 c-109 -21 -247 -125 -298 -224 -44 -88 -52 -139 -52 -347
l0 -198 -58 0 c-103 0 -102 1 -102 -224 0 -202 8 -276 41 -366 66 -178 218
-317 409 -374 29 -9 69 -16 87 -16 l33 0 0 -80 0 -80 -73 0 c-43 0 -78 -5 -85
-12 -17 -17 -15 -55 4 -62 9 -3 101 -6 204 -6 182 0 190 1 200 21 9 16 8 25
-6 40 -14 15 -31 19 -91 19 l-73 0 0 80 0 80 33 0 c18 0 57 7 86 16 200 59
354 206 422 404 20 58 23 89 27 296 5 272 8 264 -94 264 l-64 0 0 198 c0 261
-19 329 -123 439 -111 117 -262 164 -427 132z m344 -481 c8 -13 8 -23 0 -35
-10 -16 -35 -18 -239 -21 -234 -2 -255 1 -255 37 0 39 16 41 254 39 205 -3
230 -5 240 -20z m-6 -187 c8 -4 12 -19 10 -32 l-3 -24 -245 0 c-228 0 -245 1
-248 18 -9 44 7 47 247 47 124 0 232 -4 239 -9z m-688 -358 c0 -98 5 -198 11
-223 55 -240 312 -398 546 -336 145 39 261 140 314 273 21 51 24 81 29 258 l5
200 38 3 37 3 0 -173 c0 -261 -36 -374 -157 -495 -151 -151 -359 -196 -561
-121 -164 61 -285 202 -327 381 -15 64 -22 387 -8 400 3 4 21 7 40 7 l33 0 0
-177z m688 165 c17 -17 15 -55 -4 -62 -9 -3 -114 -6 -234 -6 -120 0 -225 3
-234 6 -21 8 -20 50 2 63 26 15 455 14 470 -1z m0 -200 c18 -18 14 -46 -7 -58
-12 -6 -104 -10 -231 -10 -127 0 -219 4 -231 10 -21 12 -25 40 -7 58 17 17
459 17 476 0z"/>
<path d="M221 2856 c-8 -9 -11 -113 -9 -361 3 -319 4 -349 21 -359 12 -8 22
-8 35 0 16 10 17 40 20 359 2 359 1 375 -38 375 -10 0 -23 -6 -29 -14z"/>
<path d="M2142 2858 c-9 -9 -12 -102 -12 -359 0 -373 0 -375 52 -367 l23 3 3
345 c1 190 0 355 -3 368 -6 24 -42 31 -63 10z"/>
<path d="M382 2668 c-8 -8 -12 -60 -12 -170 0 -145 1 -158 19 -168 25 -13 27
-13 45 6 23 23 23 305 0 328 -19 19 -36 20 -52 4z"/>
<path d="M1986 2658 c-23 -32 -23 -283 0 -316 8 -12 21 -22 29 -22 8 0 21 10
29 22 21 29 23 269 3 308 -17 33 -41 36 -61 8z"/>
<path d="M2367 2423 c-14 -14 -7 -43 11 -43 29 0 30 -6 16 -83 -19 -100 -19
-109 8 -105 17 2 24 12 30 43 27 144 27 145 59 145 24 0 29 4 29 25 0 24 -2
25 -73 25 -41 0 -77 -3 -80 -7z"/>
<path d="M2556 2413 c-7 -23 -36 -194 -36 -211 0 -8 9 -12 22 -10 17 2 25 13
31 41 11 46 27 47 52 5 25 -44 32 -48 88 -48 41 0 49 3 59 25 10 22 18 25 60
25 43 0 50 -3 58 -25 9 -24 34 -34 44 -17 2 4 -5 57 -17 117 -21 104 -23 110
-48 113 -23 3 -31 -8 -89 -113 -35 -63 -67 -115 -71 -115 -4 0 -17 16 -29 37
l-21 36 25 23 c36 34 42 62 19 92 -22 29 -49 39 -105 41 -27 1 -38 -4 -42 -16z
m102 -60 c3 -17 -4 -26 -24 -33 -34 -13 -47 -1 -38 34 5 22 11 27 33 24 18 -2
27 -10 29 -25z m212 -12 c0 -11 3 -26 6 -35 5 -13 -1 -16 -25 -16 -36 0 -36 1
-16 40 18 34 35 39 35 11z"/>
<path d="M3015 2421 c-13 -22 -44 -216 -36 -224 21 -21 39 4 51 67 7 36 16 66
21 66 4 0 28 -31 53 -70 47 -72 56 -79 74 -57 12 15 47 215 39 223 -3 3 -14 3
-25 0 -15 -5 -21 -19 -26 -59 -8 -59 -22 -88 -33 -71 -83 121 -105 145 -118
125z"/>
<path d="M3313 2423 c-28 -5 -53 -39 -53 -70 0 -17 13 -31 45 -51 25 -15 45
-34 45 -43 0 -26 -38 -31 -61 -8 -40 40 -72 16 -35 -28 19 -22 32 -28 64 -28
102 0 110 109 11 140 -29 9 -25 45 5 45 14 0 28 -4 31 -10 3 -5 17 -10 30 -10
18 0 22 4 18 20 -5 19 -52 52 -70 49 -4 -1 -18 -4 -30 -6z"/>
<path d="M3474 2403 c-3 -16 -10 -44 -14 -63 -5 -19 -12 -61 -15 -92 l-7 -58
96 0 c93 0 97 1 108 25 10 22 17 25 65 25 50 0 53 -1 53 -25 0 -18 5 -25 20
-25 25 0 26 32 2 150 -16 79 -19 85 -43 88 -18 2 -29 -3 -37 -20 -6 -13 -30
-54 -52 -93 -22 -38 -46 -80 -52 -92 -13 -27 -26 -30 -24 -5 1 13 -8 18 -38
20 l-39 3 7 47 c20 141 20 142 -2 142 -15 0 -23 -8 -28 -27z m268 -78 c4 -34
3 -35 -29 -35 -32 0 -33 1 -22 23 30 57 45 61 51 12z"/>
<path d="M3862 2418 c-20 -20 -14 -38 14 -38 29 0 29 4 8 -143 -7 -47 -6 -49
17 -45 21 3 25 11 39 93 15 88 16 90 45 95 21 4 31 11 33 28 3 21 0 22 -70 22
-44 0 -79 -5 -86 -12z"/>
<path d="M4056 2412 c-9 -26 -36 -183 -36 -204 0 -15 10 -18 69 -18 60 0 69 3
74 19 7 27 0 31 -45 31 -34 0 -38 3 -38 25 0 22 4 25 40 25 28 0 42 5 49 19
12 22 -2 31 -51 31 -41 0 -35 34 7 38 58 5 73 11 71 29 -2 15 -15 19 -69 21
-57 2 -66 0 -71 -16z"/>
<path d="M4246 2419 c-9 -29 -36 -185 -36 -206 0 -16 6 -23 20 -23 21 0 24 4
34 53 9 37 21 34 52 -13 19 -28 34 -40 50 -40 29 0 29 0 3 45 l-22 36 27 28
c35 37 35 84 0 107 -34 23 -122 31 -128 13z m100 -50 c13 -21 -8 -49 -37 -49
-31 0 -37 16 -19 50 10 18 44 18 56 -1z"/>
</g>
</svg>
