<?xml version="1.0" standalone="no"?>
<!DOCTYPE svg PUBLIC "-//W3C//DTD SVG 20010904//EN"
 "http://www.w3.org/TR/2001/REC-SVG-20010904/DTD/svg10.dtd">
<svg version="1.0" xmlns="http://www.w3.org/2000/svg"
 width="500.000000pt" height="500.000000pt" viewBox="0 0 500.000000 500.000000"
 preserveAspectRatio="xMidYMid meet">
<metadata>
Created by potrace 1.14, written by Peter Selinger 2001-2017
</metadata>
<g transform="translate(0.000000,500.000000) scale(0.100000,-0.100000)"
fill="#000000" stroke="none">
<path d="M2339 4995 c-4 -3 -25 -8 -48 -10 -91 -11 -118 -14 -161 -20 -67 -11
-238 -51 -294 -70 -26 -9 -56 -18 -65 -20 -32 -6 -208 -78 -293 -120 -125 -63
-323 -184 -340 -209 -5 -7 -8 -7 -8 -1 0 6 -3 5 -8 -1 -4 -6 -34 -33 -67 -60
-110 -89 -217 -192 -305 -295 -25 -28 -51 -58 -57 -65 -7 -7 -13 -17 -13 -22
0 -6 -4 -12 -8 -14 -4 -1 -23 -25 -42 -53 -19 -27 -37 -52 -41 -55 -11 -10
-69 -111 -69 -120 0 -6 -4 -10 -10 -10 -5 0 -10 -6 -10 -14 0 -8 -3 -16 -7
-18 -18 -7 -181 -368 -167 -368 2 0 -2 -13 -11 -30 -8 -16 -14 -33 -13 -37 0
-4 -4 -21 -11 -37 -6 -15 -12 -39 -13 -52 -1 -13 -5 -24 -9 -24 -5 0 -20 -72
-24 -120 -1 -8 -7 -34 -14 -58 -7 -24 -10 -49 -8 -55 2 -7 0 -22 -4 -35 -25
-66 -28 -437 -5 -584 3 -21 9 -55 12 -75 3 -21 8 -49 10 -63 3 -14 6 -34 7
-45 2 -11 6 -29 10 -40 3 -11 9 -33 12 -50 8 -38 7 -35 35 -125 13 -41 24 -78
24 -82 1 -3 4 -10 8 -14 5 -4 8 -18 8 -31 0 -13 5 -23 10 -23 6 0 10 -7 10
-16 0 -25 128 -293 170 -354 9 -14 35 -52 56 -85 21 -33 41 -62 44 -65 3 -3
25 -32 49 -65 25 -33 61 -78 80 -100 58 -64 235 -238 270 -265 18 -14 51 -40
73 -58 22 -17 43 -32 47 -32 4 0 16 -8 27 -17 55 -50 247 -160 394 -226 151
-68 274 -107 485 -153 33 -7 68 -13 110 -19 22 -2 65 -9 95 -14 52 -9 437 -7
490 2 54 9 126 20 150 23 14 1 25 3 25 4 0 1 7 3 15 5 155 31 146 28 285 75
50 17 95 32 100 34 68 19 324 151 424 217 41 27 78 49 82 49 5 0 9 3 9 8 0 4
17 18 38 32 20 14 39 27 42 30 3 3 34 30 70 60 124 104 295 288 366 392 16 24
35 49 41 56 7 7 25 34 40 60 15 26 30 49 33 52 25 23 180 344 180 373 0 7 4
17 9 23 10 10 51 135 56 169 2 11 4 20 5 20 1 0 3 7 5 15 1 8 8 35 15 60 7 25
14 54 16 65 2 11 5 30 8 41 13 58 21 119 31 224 3 35 8 66 10 69 2 2 0 12 -5
22 -6 10 -7 20 -3 22 12 7 3 284 -11 367 -3 19 -8 53 -11 75 -6 56 -12 86 -41
200 -29 115 -29 115 -37 135 -3 8 -22 62 -43 120 -38 109 -164 366 -196 400
-10 11 -16 20 -12 20 4 0 -2 10 -14 23 -11 12 -22 27 -23 32 -2 16 -131 183
-190 249 -30 33 -85 89 -123 125 -38 36 -76 74 -85 84 -8 9 -18 17 -22 17 -4
0 -21 13 -39 30 -65 61 -341 240 -369 240 -6 0 -11 5 -11 10 0 6 -4 10 -10 10
-5 0 -40 15 -77 33 -56 27 -182 79 -203 83 -3 0 -18 6 -35 13 -37 15 -183 57
-230 66 -11 2 -58 12 -105 21 -47 8 -101 18 -120 20 -19 2 -55 7 -80 10 -62 9
-364 17 -371 9z m331 -189 c47 -4 96 -8 110 -11 14 -2 44 -6 68 -10 23 -4 52
-8 65 -10 101 -16 302 -80 442 -143 176 -78 259 -127 399 -233 168 -126 305
-257 398 -381 15 -20 33 -42 40 -50 7 -8 18 -21 23 -29 6 -9 36 -54 68 -102
31 -48 57 -90 57 -93 0 -3 8 -18 18 -32 54 -80 186 -421 198 -512 2 -19 8 -46
14 -60 25 -70 43 -253 44 -455 1 -193 -11 -308 -50 -475 -16 -70 -26 -104 -46
-165 -23 -67 -29 -89 -29 -92 0 -2 -11 -29 -25 -60 -57 -127 -87 -188 -98
-195 -6 -4 -8 -8 -3 -8 4 0 -4 -18 -18 -40 -14 -22 -25 -44 -25 -50 0 -5 -3
-10 -8 -10 -4 0 -18 -20 -32 -45 -14 -25 -28 -45 -32 -45 -5 0 -8 -5 -8 -10 0
-6 -5 -16 -10 -23 -6 -7 -24 -30 -40 -52 -78 -103 -236 -270 -319 -335 -24
-19 -48 -39 -55 -45 -146 -129 -438 -287 -651 -352 -44 -13 -87 -27 -95 -30
-8 -3 -24 -8 -35 -10 -11 -2 -36 -8 -55 -13 -19 -5 -51 -12 -70 -15 -19 -3
-46 -7 -60 -10 -14 -2 -45 -7 -69 -10 l-44 -6 8 73 c9 77 15 348 8 360 -7 13
-5 596 2 607 3 6 16 11 28 11 12 0 43 7 70 15 26 8 47 12 47 9 0 -3 6 -2 13 3
6 4 20 9 30 10 53 8 135 72 121 95 -3 4 -1 8 4 8 10 0 11 16 13 242 0 97 -2
182 -6 187 -3 6 -1 11 5 11 6 0 8 5 5 10 -3 6 3 10 15 10 12 0 18 5 15 10 -3
6 3 10 13 10 23 0 185 78 190 91 2 5 10 9 18 9 9 0 12 5 9 10 -3 6 -1 10 5 10
19 0 63 60 96 129 35 73 46 179 22 209 -11 13 -11 14 0 8 11 -7 12 -4 3 13 -6
11 -21 26 -34 32 -30 16 -38 31 -26 46 6 7 8 17 5 22 -4 5 -2 12 4 16 7 4 7
12 0 26 -6 10 -8 19 -5 19 14 0 -35 42 -51 44 -14 2 -18 10 -16 27 2 13 4 35
6 49 2 14 -1 31 -7 38 -5 6 -6 12 -2 12 5 0 0 9 -10 20 -10 11 -24 20 -30 20
-18 0 -25 24 -18 64 7 44 -13 96 -37 96 -17 0 -44 23 -36 31 2 2 7 20 10 39 5
37 -19 104 -35 94 -5 -3 -9 -1 -9 5 0 5 -9 13 -20 16 -16 5 -18 10 -9 26 12
23 5 80 -13 109 -7 11 -25 25 -40 31 -21 8 -26 15 -18 24 5 6 7 15 3 18 -3 4
-1 7 5 7 8 0 9 11 5 32 -6 31 -33 92 -33 75 0 -4 -9 -3 -19 3 -16 8 -19 20
-18 67 1 46 -4 70 -27 116 -16 31 -33 57 -38 57 -4 0 -7 4 -5 8 3 13 -67 77
-115 106 -42 24 -124 50 -203 64 -39 6 -317 7 -385 0 -19 -2 -37 -6 -40 -10
-3 -3 -19 -8 -35 -11 -17 -2 -39 -7 -50 -11 -11 -4 -33 -12 -50 -18 -16 -5
-39 -14 -50 -18 -11 -5 -35 -14 -52 -22 -18 -7 -33 -16 -33 -20 0 -5 -9 -8
-20 -8 -11 0 -20 -3 -20 -8 0 -4 -15 -13 -32 -21 -18 -8 -35 -17 -38 -21 -3
-3 -23 -17 -44 -30 -38 -23 -115 -95 -146 -135 -18 -24 -48 -88 -62 -130 -13
-40 -19 -235 -7 -235 5 0 8 -3 7 -7 -3 -16 15 -43 28 -43 8 0 14 -3 15 -7 0
-5 2 -35 3 -67 1 -36 7 -61 14 -64 7 -2 12 -10 12 -18 0 -8 11 -19 25 -24 25
-10 32 -34 16 -59 -9 -14 7 -71 24 -83 6 -4 6 -8 2 -8 -12 0 15 -25 35 -33 14
-5 17 -16 14 -52 -5 -59 10 -97 45 -121 25 -16 28 -23 23 -57 -6 -51 21 -112
56 -127 25 -10 26 -14 17 -48 -6 -26 -6 -46 3 -67 6 -16 11 -32 10 -34 -1 -2
12 -13 30 -24 24 -15 30 -26 28 -46 -2 -14 -6 -28 -9 -31 -7 -5 30 -91 43
-100 4 -3 10 -145 13 -315 3 -171 6 -317 7 -325 3 -28 94 -106 163 -140 76
-37 157 -46 251 -29 26 5 49 7 51 5 6 -5 4 -536 -1 -545 -9 -14 -17 -97 -17
-170 0 -101 9 -169 36 -258 5 -16 3 -23 -6 -24 -32 -3 -177 2 -210 7 -20 2
-56 6 -80 8 -37 4 -128 19 -228 40 -65 14 -236 72 -326 111 -89 39 -133 61
-280 144 -22 13 -57 36 -77 52 -20 16 -39 29 -42 29 -6 0 -32 20 -86 67 -21
18 -41 33 -45 33 -13 0 -235 229 -303 313 -35 42 -60 77 -56 77 4 0 -1 10 -12
22 -59 67 -228 378 -238 438 -1 3 -4 10 -7 15 -5 9 -37 100 -46 130 -24 89
-54 216 -55 238 -1 15 -4 27 -7 27 -3 0 -6 10 -7 23 0 12 -5 54 -10 92 -16
135 -10 506 11 597 2 13 7 34 9 48 14 90 75 297 107 367 10 24 19 46 19 49 0
14 103 219 114 226 6 4 7 8 2 8 -4 0 2 15 16 33 13 17 30 44 37 60 8 15 18 27
23 27 5 0 7 4 4 8 -2 4 9 23 25 41 16 19 29 36 29 40 0 3 13 20 28 38 15 17
43 51 62 75 19 23 82 89 140 145 119 116 123 119 170 153 19 13 37 27 40 30 3
4 28 22 55 40 28 19 52 37 53 42 2 4 10 8 18 8 8 0 14 3 14 8 0 4 57 36 128
72 70 36 130 69 133 73 3 5 9 8 13 7 4 -1 26 6 49 16 23 10 44 18 47 19 3 0
30 9 60 20 30 10 60 20 65 22 157 42 241 62 281 67 27 3 60 8 74 11 14 3 70 8
125 11 55 3 100 6 101 7 4 4 137 -1 224 -7z m-359 -659 c13 -10 28 -17 34 -17
5 0 26 -23 45 -50 47 -67 59 -80 76 -80 32 0 5 82 -42 125 -33 31 -30 38 8 17
17 -10 52 -48 77 -84 46 -67 71 -78 71 -32 0 28 -17 61 -44 86 -10 10 -15 18
-10 18 5 0 1 5 -8 11 -10 5 -18 14 -18 20 0 22 89 -68 127 -128 27 -43 57 -54
59 -23 1 30 -66 146 -78 135 -3 -3 -5 2 -5 9 0 30 64 -26 103 -89 10 -16 21
-32 24 -35 3 -3 10 -14 16 -24 5 -11 18 -20 27 -22 36 -5 6 97 -39 133 -9 6
-11 14 -5 17 13 9 63 -40 96 -94 40 -64 54 -77 66 -59 12 19 11 25 -6 59 -18
34 -7 40 15 10 8 -11 19 -20 25 -20 8 0 57 -90 60 -110 0 -3 4 -10 8 -17 17
-27 -4 -40 -64 -40 -63 0 -77 -6 -84 -41 -7 -38 17 -49 123 -56 69 -5 94 -19
90 -50 -3 -18 -10 -21 -48 -22 -65 -2 -89 -12 -96 -41 -10 -40 12 -52 101 -55
70 -2 83 -5 104 -26 24 -24 24 -25 6 -38 -10 -8 -39 -14 -63 -14 -55 0 -82
-14 -82 -44 0 -38 24 -48 111 -50 75 -2 82 -4 95 -26 19 -35 19 -35 -26 -53
-32 -12 -40 -20 -40 -41 0 -30 25 -46 72 -46 38 0 51 -7 66 -36 18 -33 -1 -44
-83 -48 -52 -2 -79 -47 -46 -75 15 -13 37 -17 98 -16 81 2 102 -8 103 -47 0
-18 -13 -24 -80 -33 -62 -9 -88 -45 -55 -78 11 -12 32 -14 91 -10 65 4 78 2
93 -14 9 -10 17 -26 17 -35 2 -18 -6 -22 -71 -33 -22 -4 -48 -11 -57 -16 -21
-12 -24 -52 -4 -68 13 -11 73 -9 133 3 27 6 53 -17 54 -47 5 -86 -4 -144 -30
-195 -12 -23 -19 -42 -16 -42 15 0 -104 -107 -140 -126 -34 -19 -209 -70 -270
-79 -11 -2 -20 -4 -20 -5 0 -2 -9 -4 -20 -5 -11 -2 -40 -5 -65 -9 -56 -7 -208
-9 -235 -2 -76 18 -182 106 -220 181 -11 22 -23 42 -28 43 -4 2 -4 8 -1 13 3
6 -1 18 -9 27 -9 9 -15 19 -14 22 2 6 -28 90 -48 135 -30 68 -57 165 -50 182
5 13 16 -6 42 -72 19 -49 45 -114 59 -142 13 -29 26 -65 30 -80 4 -16 12 -35
19 -43 7 -8 16 -26 20 -40 4 -14 17 -38 28 -55 22 -33 107 -115 116 -112 3 1
17 -5 30 -12 38 -21 107 -22 123 -3 21 25 17 34 -34 87 -27 27 -48 54 -48 62
0 7 -4 13 -8 13 -4 0 -16 22 -27 49 -20 52 -23 54 -72 28 -18 -10 -33 -15 -33
-11 0 4 -6 1 -14 -5 -10 -9 -19 -7 -37 9 -26 21 -20 26 12 10 13 -7 19 -7 19
0 0 5 9 10 20 10 11 0 20 5 20 10 0 6 6 10 13 10 8 0 49 18 93 39 94 47 185
79 245 85 24 3 55 7 69 10 14 3 43 7 65 11 79 11 105 24 103 52 -4 40 -59 57
-130 40 -14 -4 -43 -9 -64 -12 -63 -8 -147 -26 -179 -38 -16 -6 -34 -12 -40
-13 -5 -1 -39 -16 -74 -33 -36 -17 -68 -31 -73 -31 -5 0 -14 14 -19 30 -12 34
-28 37 -65 13 -35 -22 -79 -26 -94 -8 -11 13 -9 15 16 14 18 -1 79 22 164 64
74 36 149 68 165 71 17 3 41 8 55 11 14 3 52 8 85 10 168 12 218 36 173 85
-19 20 -27 22 -97 16 -42 -3 -85 -8 -97 -10 -11 -2 -38 -5 -60 -7 -21 -1 -45
-7 -52 -12 -7 -6 -15 -7 -18 -4 -7 7 -91 -22 -164 -57 -68 -32 -78 -32 -86 -2
-8 35 -31 40 -70 15 -34 -21 -85 -23 -91 -3 -2 6 8 9 26 6 16 -2 32 1 35 7 4
6 16 11 26 11 10 0 20 4 22 9 6 16 212 109 253 115 88 11 143 17 200 21 33 2
69 6 80 9 11 2 23 5 27 5 12 2 2 63 -13 72 -8 5 -52 7 -99 4 -192 -11 -262
-25 -355 -69 -107 -52 -99 -53 -130 25 -16 38 -28 76 -28 84 0 8 -4 15 -8 15
-8 0 -24 38 -28 69 0 5 -10 13 -21 16 -21 7 -28 25 -9 25 6 0 23 9 37 19 15
10 32 20 37 21 6 1 28 11 50 23 22 11 47 22 55 23 8 1 26 5 40 9 14 3 90 7
169 9 126 3 146 6 158 22 17 23 16 39 -2 58 -13 12 -41 14 -163 12 -157 -4
-196 -9 -252 -33 -19 -9 -41 -17 -49 -19 -8 -1 -17 -6 -20 -11 -3 -4 -15 -10
-26 -11 -11 -2 -21 -8 -23 -13 -2 -5 -15 -9 -28 -9 -14 0 -23 3 -21 8 10 16
-13 52 -33 52 -11 0 -20 -4 -20 -10 0 -5 -6 -10 -14 -10 -7 0 -19 -6 -25 -14
-7 -8 -21 -13 -32 -11 -43 8 -40 19 10 31 28 8 61 23 73 34 12 11 27 20 34 20
7 0 14 4 16 8 4 9 128 65 145 65 7 0 13 3 13 6 0 3 19 7 43 8 23 1 47 3 52 4
6 0 61 0 122 -2 138 -2 157 8 129 72 -8 19 -8 19 -176 19 -117 0 -159 -2 -180
-10 -3 -1 -9 -3 -15 -4 -22 -3 -63 -19 -123 -48 -63 -30 -92 -31 -92 -3 0 8
-5 15 -11 15 -5 0 -8 4 -4 9 3 5 1 12 -5 16 -5 3 -10 1 -10 -5 0 -6 -5 -8 -10
-5 -6 3 -13 -1 -16 -9 -3 -9 -15 -16 -25 -16 -10 0 -19 -4 -19 -9 0 -4 -12 -8
-27 -7 -18 1 -29 7 -31 19 -3 15 0 17 15 9 10 -6 21 -12 25 -14 4 -1 14 6 22
17 9 11 16 16 16 11 0 -4 16 4 35 18 19 15 35 23 35 19 0 -4 4 -3 8 2 12 18
125 69 182 82 25 7 252 8 255 2 7 -10 74 3 85 17 17 19 2 54 -28 66 -15 6 -63
12 -107 13 -44 2 -80 4 -80 5 0 1 -10 3 -22 4 -13 2 -23 0 -23 -3 0 -3 -17 -7
-38 -7 -44 -2 -77 -8 -114 -23 -16 -6 -28 -8 -28 -5 0 2 -13 -2 -29 -10 -26
-14 -30 -14 -41 -1 -7 8 -10 15 -7 15 3 0 -1 20 -9 45 -7 25 -10 45 -6 45 4 0
0 5 -8 10 -8 5 -10 10 -5 10 6 0 11 9 12 20 1 11 -3 20 -8 20 -6 0 -7 -4 -4
-10 3 -5 -1 -10 -9 -10 -13 0 -16 -12 -16 -52 0 -65 9 -99 24 -97 25 3 37 -2
34 -13 -3 -7 -9 -13 -14 -13 -5 -1 -19 -6 -31 -13 -19 -11 -24 -9 -33 8 -6 11
-8 25 -5 30 3 6 1 10 -4 10 -15 0 -14 125 1 153 39 73 122 57 167 -31 10 -21
19 -41 19 -46 0 -15 25 -25 64 -24 52 1 61 15 38 66 -11 23 -18 43 -18 45 6 8
-109 127 -121 125 -19 -2 -31 4 -31 16 0 19 50 14 81 -7z m-296 -57 c4 -6 3
-9 -2 -8 -8 3 -69 -56 -100 -95 -16 -20 -10 -133 10 -177 20 -45 89 -222 91
-235 1 -5 6 -17 11 -25 5 -8 10 -19 11 -25 3 -17 74 -199 85 -219 17 -29 19
-54 4 -60 -9 -3 -23 17 -42 62 -15 37 -28 69 -29 72 0 3 -6 19 -13 35 -6 17
-19 50 -29 75 -9 25 -22 56 -29 70 -7 14 -13 28 -13 31 0 4 -8 24 -17 45 -9
22 -18 44 -19 49 -2 6 -17 47 -33 93 -17 45 -28 82 -25 82 3 0 2 5 -2 12 -9
15 -12 69 -5 83 11 20 9 34 -5 39 -8 3 -14 9 -14 14 0 10 50 37 63 34 4 -1 7
3 7 8 0 6 9 10 21 10 12 0 18 4 13 11 -4 7 -1 10 7 7 8 -3 20 1 27 9 16 16 19
16 27 3z m-160 -100 c3 -5 -1 -10 -9 -10 -9 0 -16 -5 -16 -11 0 -6 -9 -9 -20
-6 -10 3 -18 2 -17 -2 1 -4 -24 -31 -55 -61 -32 -30 -58 -61 -58 -68 0 -7 -4
-10 -10 -7 -6 4 -9 -4 -8 -19 2 -16 6 -22 13 -17 25 21 125 -25 144 -65 16
-36 -1 -70 -45 -84 -44 -15 -114 -7 -130 15 -6 9 -18 14 -25 13 -16 -3 -22 59
-7 68 4 3 6 9 3 13 -2 5 11 34 30 66 19 31 35 62 35 68 0 6 2 8 5 5 3 -2 30
19 61 49 31 29 61 50 65 47 5 -3 9 0 9 5 0 14 27 14 35 1z m-16 -156 c24 -31
18 -54 -16 -54 -30 0 -73 39 -69 63 6 44 47 40 85 -9z m-235 -241 c-3 -62 -3
-63 -11 -63 -5 0 -8 29 -8 64 0 43 3 61 10 56 6 -5 10 -30 9 -57z m326 -52
c-6 -12 -17 -21 -25 -21 -8 0 -15 -4 -15 -10 0 -5 -4 -10 -10 -10 -18 0 -10
16 14 30 13 7 27 22 31 34 4 12 8 16 11 9 3 -7 0 -21 -6 -32z m-225 9 c4 -6 3
-9 -2 -8 -4 2 -25 -8 -45 -20 -25 -16 -45 -21 -59 -17 -17 6 -19 9 -8 16 8 5
21 6 29 4 8 -3 29 4 45 14 17 11 31 20 32 20 1 1 5 -4 8 -9z m160 -60 c3 -6
-1 -7 -9 -4 -9 4 -18 -1 -22 -10 -3 -9 -11 -16 -16 -16 -5 0 -23 -9 -39 -21
-16 -11 -29 -17 -29 -12 0 4 -6 1 -13 -8 -7 -8 -24 -23 -38 -33 -20 -13 -26
-24 -24 -47 2 -24 0 -27 -11 -18 -23 19 -17 54 14 70 15 8 36 22 46 31 10 10
22 16 25 13 4 -2 27 12 51 30 50 37 56 40 65 25z m-8 -100 c10 -12 9 -17 -2
-26 -8 -6 -12 -14 -9 -17 11 -11 -49 -20 -65 -10 -16 10 -23 44 -12 61 3 5 15
14 26 20 21 11 36 4 62 -28z m140 -44 c-12 -17 -33 -40 -46 -51 -13 -10 -36
-29 -49 -42 -13 -12 -28 -20 -33 -17 -5 3 -9 1 -9 -4 0 -9 -79 -39 -92 -34 -5
1 -8 -3 -8 -9 0 -5 -4 -7 -10 -4 -9 5 -15 -24 -11 -48 1 -5 -3 -6 -8 -3 -5 3
-9 20 -8 37 2 30 24 49 97 86 40 21 115 68 118 75 2 4 8 8 14 8 19 0 55 35 51
50 -4 13 -3 13 6 1 7 -11 4 -23 -12 -45z m296 -53 c3 -5 -17 -18 -44 -30 -27
-12 -49 -17 -49 -12 0 6 -4 7 -10 4 -5 -3 -10 1 -10 9 0 9 6 13 14 10 8 -3 27
1 43 10 31 17 50 20 56 9z m-55 -96 c15 -17 17 -74 20 -625 1 -334 2 -613 2
-619 0 -7 0 -30 -1 -50 -3 -148 5 -188 47 -217 27 -18 45 -23 87 -20 29 1 61
5 72 7 11 3 40 8 65 11 25 3 59 10 75 14 17 4 40 7 53 6 12 -1 22 2 22 5 0 4
10 8 23 9 12 1 31 3 42 5 11 2 43 7 70 11 28 5 56 13 63 18 6 6 12 8 12 4 0
-4 17 2 38 13 67 35 74 59 78 269 2 179 6 201 35 202 7 0 7 10 9 -236 2 -191
1 -215 -16 -244 -19 -32 -55 -53 -109 -65 -34 -7 -87 -20 -125 -30 -14 -4 -36
-8 -50 -10 -14 -1 -25 -3 -25 -4 0 -3 -14 -6 -60 -14 -16 -3 -66 -13 -110 -21
-44 -9 -109 -19 -145 -22 -36 -3 -67 -7 -70 -7 -3 -1 -23 4 -46 12 -45 14 -72
50 -81 104 -2 18 -6 355 -7 749 -2 574 -5 720 -15 732 -8 9 -10 16 -5 16 5 0
2 5 -6 10 -11 7 -8 9 13 8 15 -1 35 -11 45 -21z m-83 -63 c21 -32 15 -76 -11
-80 -81 -13 -79 -13 -79 41 0 42 3 51 24 61 29 15 45 10 66 -22z m-135 -9 c0
-36 -116 -124 -169 -128 -19 -2 -27 -9 -29 -25 -3 -19 -5 -20 -18 -8 -24 25
-16 52 21 72 19 10 35 21 35 25 0 3 6 6 13 6 7 0 30 11 52 24 90 55 95 57 95
34z m125 -221 c19 -14 20 -27 21 -252 0 -130 -1 -243 -4 -249 -7 -22 -32 -14
-67 20 l-34 33 0 215 c0 166 3 219 14 236 15 23 36 22 70 -3z m-125 1 c0 -6
-3 -15 -7 -19 -5 -4 -8 -13 -8 -19 0 -14 -65 -58 -76 -52 -4 3 -10 1 -14 -5
-4 -6 -11 -8 -16 -5 -5 4 -9 1 -9 -4 0 -6 -7 -11 -15 -11 -33 0 -1 73 33 76
14 1 82 38 82 44 0 4 7 7 15 7 8 0 15 -6 15 -12z m0 -251 c0 -7 -13 -20 -29
-29 -16 -8 -31 -20 -34 -27 -3 -8 -10 -2 -17 14 -11 23 -11 30 1 44 29 35 79
34 79 -2z m280 -8 c0 -8 -4 -18 -10 -21 -5 -3 -10 3 -10 14 0 12 5 21 10 21 6
0 10 -6 10 -14z m-282 -196 c-1 -16 -5 -27 -10 -24 -11 7 -10 54 1 54 5 0 9
-13 9 -30z m352 4 c0 -8 -5 -12 -10 -9 -6 4 -8 11 -5 16 9 14 15 11 15 -7z
m36 -136 c8 -16 12 -28 10 -28 -3 0 -18 12 -34 28 -35 32 -65 88 -56 103 6 10
48 -44 80 -103z m-293 40 c35 -21 55 -47 50 -68 -5 -19 -45 -20 -51 0 -2 5
-10 10 -17 10 -16 0 -35 30 -35 54 0 19 22 21 53 4z m207 -70 c12 -13 31 -36
43 -51 85 -110 101 -127 118 -127 22 0 26 -16 4 -18 -53 -4 -124 -1 -149 6
-34 9 -49 34 -17 25 24 -6 24 -8 10 37 -5 19 -12 42 -14 50 -2 8 -9 31 -14 50
-18 58 -14 63 19 28z m-215 -108 c3 -5 15 -10 25 -10 23 0 31 -22 31 -93 1
-83 -14 -96 -63 -54 -27 22 -35 64 -30 145 2 22 26 30 37 12z m792 -28 c11 -7
23 -46 43 -140 18 -84 18 -111 1 -117 -21 -6 -62 2 -75 15 -11 11 -14 205 -3
233 7 19 15 21 34 9z m-93 -119 c-1 -54 -2 -105 -3 -114 0 -9 -16 -32 -33 -51
-25 -25 -43 -35 -71 -37 -36 -2 -37 -2 -27 24 15 39 12 70 -7 94 -27 32 -59
33 -130 5 -76 -31 -113 -27 -113 12 0 15 14 38 35 60 19 19 35 32 35 28 0 -3
6 -1 14 5 7 6 47 20 87 32 41 11 103 28 139 38 36 9 67 14 70 10 3 -5 5 -52 4
-106z m-225 83 c-2 -2 -19 -8 -36 -14 -25 -8 -33 -8 -33 1 0 7 16 13 36 14 20
1 35 1 33 -1z m-188 -50 c18 11 18 -18 -1 -48 -27 -45 -25 -75 9 -107 37 -34
69 -36 139 -8 79 32 96 27 88 -26 -4 -23 -13 -48 -20 -55 -12 -12 -24 -16 -96
-27 -19 -3 -57 -10 -85 -15 -97 -19 -133 -22 -139 -12 -5 8 -11 262 -7 309 1
8 15 8 53 -2 28 -8 55 -12 59 -9z m527 -212 c12 -8 22 -18 21 -22 -1 -18 -17
-47 -25 -48 -5 0 -27 -5 -49 -12 -22 -6 -60 -14 -85 -17 -24 -4 -47 -8 -51
-11 -3 -2 -24 -6 -45 -8 -21 -3 -75 -12 -119 -20 -44 -9 -93 -18 -110 -20 -16
-3 -45 -8 -63 -11 -32 -5 -92 19 -92 36 0 10 127 37 255 55 37 5 38 5 21 -9
-19 -14 -19 -15 1 -26 12 -6 28 -9 35 -6 66 23 72 26 59 34 -22 14 -5 29 52
45 28 9 70 27 92 41 41 26 60 25 103 -1z m-815 -85 c12 -7 30 -12 42 -13 16
-1 21 -10 26 -44 3 -24 2 -45 -3 -48 -21 -13 -98 64 -98 99 0 20 4 21 33 6z
m438 -748 c-2 -18 -7 -28 -10 -22 -7 11 -7 546 0 566 5 14 15 -503 10 -544z
m125 517 c4 -7 9 -143 11 -303 4 -446 7 -573 15 -569 4 3 6 20 4 40 -1 19 1
37 6 40 5 3 5 10 2 16 -4 6 -6 47 -5 92 1 45 3 138 4 208 2 143 12 173 15 46
7 -293 7 -351 -1 -423 -5 -44 -14 -86 -20 -93 -6 -8 -27 -12 -56 -10 -45 3
-45 4 -56 48 -7 27 -8 62 -3 88 17 94 24 246 29 647 1 88 4 166 7 173 5 15 39
16 48 0z"/>
<path d="M2406 3753 c-2 -3 -12 -6 -23 -8 -10 -2 -19 -4 -20 -5 -2 -2 -7 -3
-12 -4 -5 0 -12 -4 -16 -7 -6 -7 32 -5 125 6 30 4 67 8 82 9 62 3 31 12 -47
13 -47 0 -86 -2 -89 -4z"/>
<path d="M2220 3684 c0 -33 21 -47 35 -24 4 6 11 8 16 5 13 -9 11 8 -5 30 -24
33 -46 28 -46 -11z"/>
<path d="M2480 3565 c-19 -7 -39 -12 -43 -13 -5 0 -11 -3 -14 -5 -4 -5 86 0
152 8 17 2 34 4 39 4 5 1 6 4 2 9 -12 12 -98 10 -136 -3z"/>
<path d="M2320 3532 c0 -7 -6 -11 -12 -9 -13 2 -15 -49 -3 -61 12 -13 40 17
37 39 -3 25 -22 52 -22 31z"/>
<path d="M2390 3536 c0 -2 7 -7 16 -10 8 -3 12 -2 9 4 -6 10 -25 14 -25 6z"/>
<path d="M2552 3378 c-18 -5 -30 -12 -28 -17 6 -9 29 -8 98 5 24 4 46 7 51 6
4 -1 7 3 7 8 0 12 -80 11 -128 -2z"/>
<path d="M2500 3359 c0 -5 -6 -7 -12 -3 -7 4 -9 3 -5 -1 13 -15 36 -14 30 1
-6 17 -13 18 -13 3z"/>
<path d="M2947 3352 c-20 -24 -11 -71 19 -99 24 -22 26 -22 50 -6 22 14 25 22
20 51 -9 61 -57 90 -89 54z"/>
<path d="M2364 3307 c8 -39 9 -40 39 -26 35 16 23 54 -18 55 -25 1 -26 -1 -21
-29z"/>
<path d="M2675 3332 c-5 -5 -66 -13 -97 -13 -16 0 -28 -4 -28 -8 0 -4 -8 -7
-18 -8 -30 -2 -132 -51 -132 -63 0 -6 -4 -8 -10 -5 -6 4 -10 -6 -10 -24 0 -49
29 -57 95 -27 29 13 56 22 59 18 3 -3 6 -1 6 5 0 11 111 31 205 37 77 5 94 12
90 39 -6 49 -12 53 -86 53 -39 0 -72 -2 -74 -4z"/>
<path d="M2623 3191 c-84 -25 -67 -34 27 -16 19 4 51 8 70 9 31 1 40 6 40 21
0 2 -11 0 -24 -5 -13 -5 -27 -6 -30 -2 -11 10 -29 9 -83 -7z"/>
<path d="M2441 3136 c-13 -15 -6 -42 14 -50 18 -7 47 28 39 48 -8 20 -37 21
-53 2z"/>
<path d="M2715 3007 c-8 -4 -15 -5 -15 -2 0 3 -9 1 -20 -5 -29 -15 -26 -32 4
-20 13 5 27 6 30 3 3 -4 6 0 6 8 0 11 2 11 10 -1 5 -8 10 -10 10 -5 0 6 8 11
18 12 50 3 92 10 98 15 9 10 -124 5 -141 -5z"/>
<path d="M2631 2981 c-10 -6 -10 -10 -1 -16 13 -8 24 -1 19 14 -3 6 -10 7 -18
2z"/>
<path d="M2519 2951 c-13 -12 -18 -20 -11 -21 7 0 11 -4 7 -9 -8 -14 12 -23
34 -16 14 4 18 13 16 27 -7 35 -20 40 -46 19z"/>
<path d="M2827 2829 c-7 -4 -31 -10 -54 -14 -24 -4 -51 -14 -61 -23 -10 -10
-13 -13 -6 -9 7 4 16 7 20 5 10 -2 110 16 117 21 2 2 29 8 64 15 7 1 15 4 17
7 8 7 -83 5 -97 -2z"/>
<path d="M2591 2766 c-12 -14 -3 -58 10 -50 5 3 9 0 9 -7 0 -7 6 -5 14 6 24
33 -7 82 -33 51z"/>
<path d="M3362 2628 c-3 -33 -8 -68 -13 -78 -1 -3 -3 -9 -4 -15 -4 -25 -49
-103 -57 -99 -4 3 -8 0 -8 -7 0 -7 -7 -21 -17 -31 -9 -10 -11 -18 -6 -18 6 0
14 7 17 16 4 9 9 14 13 11 10 -10 69 55 93 102 26 52 34 137 13 145 -25 10
-29 7 -31 -26z"/>
<path d="M2775 2630 c-27 -10 -51 -25 -53 -33 -4 -19 48 -137 60 -137 5 0 7
-4 4 -8 -8 -13 9 -32 34 -37 58 -11 89 80 67 195 -8 45 -32 49 -112 20z"/>
<path d="M3281 2641 c-8 -5 -15 -32 -17 -64 -4 -67 -40 -152 -82 -195 -17 -18
-27 -32 -22 -32 14 0 89 54 90 64 0 5 10 23 23 40 25 33 47 98 47 138 0 33
-21 60 -39 49z"/>
<path d="M3106 2612 c-4 -7 -12 -10 -17 -7 -5 4 -9 -2 -10 -12 -4 -114 -31
-191 -89 -253 -17 -18 -30 -34 -30 -36 0 -7 44 21 57 36 7 8 13 12 13 8 0 -3
15 8 33 25 19 18 32 34 30 36 -2 3 3 14 11 25 24 37 34 108 21 151 -7 26 -13
36 -19 27z"/>
<path d="M3179 2618 c-2 -4 -6 -35 -12 -83 -6 -52 -31 -111 -66 -155 -43 -55
-47 -64 -22 -48 12 7 21 16 21 20 0 5 5 8 10 8 21 0 88 84 100 124 23 77 17
136 -15 136 -8 0 -16 -1 -16 -2z"/>
<path d="M2993 2592 c-6 -4 -13 -30 -14 -57 -1 -56 -25 -134 -45 -151 -8 -6
-11 -14 -7 -17 3 -4 -2 -9 -11 -13 -9 -3 -16 -11 -16 -16 0 -6 -10 -19 -22
-29 -33 -29 0 -23 41 8 36 26 80 69 81 78 1 3 7 20 15 39 14 34 19 69 16 112
-2 28 -24 55 -38 46z"/>
<path d="M2656 2574 c-7 -17 43 -113 71 -135 15 -13 15 -12 3 11 -8 14 -13 28
-12 33 1 4 -3 7 -10 7 -6 0 -9 3 -5 6 7 7 -13 65 -29 81 -9 10 -13 9 -18 -3z"/>
</g>
</svg>
